<svg fill="none" height="300" viewBox="0 0 300 300" width="300" xmlns="http://www.w3.org/2000/svg" xmlns:xlink="http://www.w3.org/1999/xlink"><linearGradient id="a"><stop offset="0" stop-color="#8763d2"/><stop offset="1" stop-color="#4d3285"/></linearGradient><linearGradient id="b" gradientUnits="userSpaceOnUse" x1="205.008" x2=".009772" xlink:href="#a" y1="102.499" y2="102.499"/><linearGradient id="c" gradientUnits="userSpaceOnUse" x1="300.007" x2="95.0088" xlink:href="#a" y1="197.498" y2="197.498"/><clipPath id="d"><path d="m0 0h300v300h-300z"/></clipPath><g clip-path="url(#d)"><path d="m195.391 73.0368c1.68 0 3.383 0 5.052.1241l1.59.0902c.79 0 1.579.0789 2.369.1353-5.367-17.1728-15.074-32.6707-28.182-44.9952-13.108-12.3246-29.173-21.05908-46.644-25.35907-17.471-4.29998-35.7551-4.020036-53.0859.81277-17.3308 4.8328-33.1217 14.055-45.8461 26.7751-12.7245 12.7201-21.95212 28.5078-26.79089 45.8369-4.838772 17.3291-5.12501 35.6131-.83104 53.0851 4.29397 17.473 13.02293 33.541 25.34293 46.654 12.3201 13.112 27.8146 22.824 44.9856 28.197-.0564-.79-.0902-1.579-.1353-2.369 0-.53-.0677-1.06-.0903-1.59-.0789-1.692-.124-3.383-.124-5.053.0388-32.443 12.9473-63.546 35.893-86.483 22.945-22.9373 54.053-35.8343 86.497-35.8612z" fill="url(#b)"/><path d="m195.39 300.031c25.006.006 49.186-8.947 68.157-25.237 18.972-16.289 31.479-38.837 35.254-63.556s-1.431-49.972-14.676-71.182c-13.244-21.209-33.649-36.972-57.517-44.4293.068.7895.09 1.5677.135 2.3458 0 .5414.079 1.1279.102 1.6241.068 1.6804.124 3.3834.124 5.0414-.048 32.432-12.955 63.521-35.893 86.45-22.937 22.928-54.031 35.825-86.463 35.861-1.68 0-3.383 0-5.0524-.113l-1.5789-.102c-.7894 0-1.5789-.067-2.3796-.135 6.6319 21.279 19.8919 39.881 37.8439 53.092 17.952 13.21 39.656 20.337 61.944 20.34z" fill="url(#c)"/><g fill="#4d3285"><path d="m209.116 100.409c0-.361 0-.7334 0-1.1281-.056-1.2406-.146-2.4812-.259-3.7218 0-.1804 0-.3496 0-.53-.113-1.1278-.259-2.2556-.417-3.4511-1.128-.1466-2.312-.3045-3.451-.406h-.542c-1.24-.1128-2.47-.203-3.699-.2707h-1.128c-1.387 0-2.763-.1015-4.15-.1015-27.733.0328-54.32 11.0642-73.93 30.6742s-30.6414 46.197-30.6743 73.93c0 1.387 0 2.763.1015 4.15v1.128c.0677 1.229.1579 2.47.2707 3.711v.53c.1015 1.127.2594 2.255.406 3.451 1.1278.158 2.312.304 3.4511.417h.5414c1.2405.113 2.4811.192 3.7104.259h1.1282c1.387.068 2.774.102 4.15.102 27.733-.033 54.32-11.064 73.93-30.674s30.641-46.198 30.674-73.93c-.011-1.32-.045-2.707-.113-4.139z"/><path d="m2.29901 82.6569c-1.52602 7.2153-2.2821247 14.5722-2.2556117 21.9471v.823l74.0857017 74.086c.9071-6.986 2.4164-13.88 4.5112-20.605z"/><path d="m136.17 88.3751-77.65-77.6495c-5.475 2.6969-10.7019 5.8708-15.6201 9.4848l78.1121 78.112c4.803-3.6804 9.87-7.005 15.158-9.9473z"/><path d="m88.0686 1.31953 75.8454 75.84507c7.018-1.8657 14.189-3.0962 21.428-3.6767l-73.195-73.205948c-2.492-.180449-4.996-.281952-7.522-.281952-5.5451.00331252-11.081.444527-16.5564 1.31953z"/><path d="m90.73 132.078c3.119-5.136 6.6094-10.036 10.443-14.662l-78.1678-78.1457c-3.7822 4.709-7.1518 9.735-10.0714 15.0224z"/></g></g></svg>