<svg width="21" height="24" viewBox="0 0 21 24" xmlns="http://www.w3.org/2000/svg">
<path d="M6.343 24C5.8021 23.946 5.28216 23.7626 4.82716 23.4651C4.28228 23.1059 3.80139 22.6579 3.40444 22.1399C1.96453 20.3075 0.931083 18.1897 0.372769 15.9271C-0.119815 14.0561 -0.124288 12.09 0.359777 10.2167C0.792872 8.58613 1.64391 7.21322 3.08829 6.27556C4.03179 5.6824 5.14909 5.42809 6.25637 5.55446C7.27198 5.64108 8.23995 5.93991 9.21009 6.22143C10.0106 6.44687 10.8616 6.41659 11.6441 6.13481C12.2483 5.93775 12.8546 5.73853 13.4739 5.59561C15.6199 5.09971 17.4606 5.64542 18.9699 7.26303C19.1258 7.42977 19.2731 7.603 19.4311 7.78057C19.141 8.05342 18.8616 8.30679 18.5888 8.56881C17.7255 9.35204 17.1422 10.3962 16.9279 11.542C16.6896 12.8338 16.9265 14.1682 17.5948 15.2991C18.018 16.0766 18.6397 16.7282 19.3965 17.1874C19.6131 17.3195 19.8664 17.404 20.1393 17.5404C19.9465 18.0146 19.7711 18.5019 19.5546 18.9696C19.0222 20.1507 18.3323 21.2543 17.5039 22.2503C16.9235 22.9324 16.276 23.5301 15.4012 23.8203C14.9236 23.9787 14.41 23.993 13.9243 23.8614C13.351 23.7211 12.7851 23.552 12.2288 23.3547C11.6057 23.1208 10.9423 23.0132 10.2772 23.0381C9.61209 23.0631 8.9586 23.22 8.35472 23.4998C7.79024 23.7514 7.19203 23.9192 6.57904 23.9978L6.343 24Z" fill="#14161E" />
<path d="M9.87488 5.81864C9.97232 2.25426 11.9256 0.539204 14.6389 0C14.6715 0.298377 14.6817 0.598778 14.6693 0.898672C14.5914 1.80307 14.3015 2.67637 13.8229 3.44769C13.3443 4.21901 12.6906 4.86661 11.9148 5.3379C11.431 5.60762 10.8915 5.76178 10.3383 5.78832C10.191 5.79698 10.0416 5.80565 9.87488 5.81864Z" fill="#14161E" />
</svg>
